<svg width="205" height="62" viewBox="0 0 205 62" fill="none" xmlns="http://www.w3.org/2000/svg">
<g id="Group 18">
<circle id="Ellipse 2" cx="174.328" cy="31.2572" r="30.2223" fill="#0C2695" stroke="#FAF5F5" stroke-width="0.915828"/>
<g id="Group 16">
<circle id="Ellipse 4" cx="31.4591" cy="31.2574" r="30.2223" fill="#0C2695" stroke="#FAF5F5" stroke-width="0.915828"/>
</g>
<g id="Group 13">
<path id="Vector" d="M37.4295 22.2343H41.0752V18.1571C39.3101 18.0357 37.5365 17.9758 35.7618 17.9776C30.4872 17.9776 26.8803 20.106 26.8803 24.0037V27.363H20.927V31.9275H26.8803V43.6207H34.0166V31.9275H39.9505L40.8425 27.363H34.0166V24.4525C34.0166 23.1062 34.5595 22.2343 37.4295 22.2343Z" fill="white"/>
</g>
<path id="Vector_2" d="M183.961 20.0177C183.55 20.0177 183.148 20.1338 182.806 20.3511C182.464 20.5685 182.198 20.8774 182.041 21.2389C181.883 21.6004 181.842 21.9981 181.922 22.3819C182.003 22.7656 182.201 23.1181 182.491 23.3947C182.782 23.6714 183.153 23.8598 183.556 23.9361C183.959 24.0124 184.377 23.9733 184.757 23.8235C185.137 23.6738 185.462 23.4203 185.69 23.095C185.918 22.7696 186.04 22.3872 186.04 21.9959C186.04 21.4713 185.821 20.9681 185.431 20.5971C185.042 20.2262 184.513 20.0177 183.961 20.0177ZM191.931 24.0071C191.897 22.6393 191.628 21.2861 191.134 20.0013C190.693 18.9019 190.008 17.9065 189.124 17.0834C188.266 16.2385 187.218 15.5902 186.058 15.1877C184.711 14.7033 183.287 14.4412 181.848 14.4129C180.011 14.314 179.422 14.314 174.71 14.314C169.998 14.314 169.408 14.314 167.572 14.4129C166.133 14.4412 164.709 14.7033 163.362 15.1877C162.204 15.5943 161.157 16.242 160.296 17.0834C159.408 17.8997 158.726 18.8975 158.303 20.0013C157.794 21.2827 157.519 22.6374 157.489 24.0071C157.385 25.7545 157.385 26.315 157.385 30.7989C157.385 35.2828 157.385 35.8433 157.489 37.5907C157.519 38.9603 157.794 40.315 158.303 41.5965C158.726 42.7002 159.408 43.698 160.296 44.5143C161.157 45.3558 162.204 46.0035 163.362 46.4101C164.709 46.8945 166.133 47.1565 167.572 47.1849C169.408 47.2838 169.998 47.2838 174.71 47.2838C179.422 47.2838 180.011 47.2838 181.848 47.1849C183.287 47.1565 184.711 46.8945 186.058 46.4101C187.218 46.0076 188.266 45.3593 189.124 44.5143C190.012 43.6943 190.698 42.698 191.134 41.5965C191.628 40.3116 191.897 38.9584 191.931 37.5907C191.931 35.8433 192.035 35.2828 192.035 30.7989C192.035 26.315 192.035 25.7545 191.931 24.0071ZM188.812 37.3928C188.8 38.4392 188.601 39.476 188.223 40.459C187.947 41.1764 187.502 41.8247 186.924 42.3548C186.362 42.8996 185.682 43.3215 184.932 43.5912C183.899 43.9501 182.809 44.1396 181.709 44.1516C179.977 44.2341 179.336 44.2506 174.779 44.2506C170.223 44.2506 169.582 44.2506 167.849 44.1516C166.707 44.172 165.57 44.0047 164.488 43.6571C163.771 43.3737 163.122 42.9528 162.582 42.4207C162.007 41.8911 161.569 41.2424 161.3 40.525C160.877 39.5279 160.643 38.4676 160.607 37.3928C160.607 35.7443 160.503 35.1344 160.503 30.7989C160.503 26.4633 160.503 25.8534 160.607 24.2049C160.615 23.1351 160.82 22.075 161.214 21.0728C161.519 20.377 161.987 19.7567 162.582 19.2594C163.109 18.6926 163.759 18.2425 164.488 17.9406C165.544 17.578 166.657 17.3885 167.78 17.3802C169.512 17.3802 170.153 17.2812 174.71 17.2812C179.266 17.2812 179.907 17.2812 181.64 17.3802C182.74 17.3922 183.829 17.5817 184.862 17.9406C185.65 18.2187 186.356 18.6707 186.924 19.2594C187.492 19.7658 187.935 20.3849 188.223 21.0728C188.608 22.0766 188.808 23.1363 188.812 24.2049C188.899 25.8534 188.916 26.4633 188.916 30.7989C188.916 35.1344 188.899 35.7443 188.812 37.3928ZM174.71 22.3421C172.953 22.3454 171.236 22.8441 169.777 23.7753C168.318 24.7066 167.181 26.0285 166.511 27.574C165.841 29.1196 165.668 30.8194 166.012 32.4588C166.357 34.0981 167.205 35.6035 168.449 36.7845C169.692 37.9656 171.276 38.7694 173 39.0943C174.723 39.4193 176.509 39.2509 178.132 38.6103C179.755 37.9698 181.142 36.8858 182.118 35.4955C183.094 34.1051 183.615 32.4708 183.615 30.7989C183.617 29.6863 183.388 28.5843 182.941 27.5562C182.494 26.5281 181.838 25.5943 181.011 24.8083C180.183 24.0224 179.2 23.3999 178.119 22.9767C177.038 22.5534 175.879 22.3378 174.71 22.3421ZM174.71 36.2883C173.569 36.2883 172.453 35.9664 171.505 35.3632C170.556 34.76 169.817 33.9027 169.38 32.8996C168.943 31.8965 168.829 30.7928 169.052 29.7279C169.274 28.6631 169.824 27.6849 170.63 26.9172C171.437 26.1495 172.465 25.6267 173.584 25.4149C174.704 25.2031 175.864 25.3118 176.918 25.7273C177.972 26.1427 178.873 26.8463 179.507 27.7491C180.141 28.6518 180.479 29.7132 180.479 30.7989C180.479 31.5198 180.33 32.2336 180.04 32.8996C179.75 33.5656 179.325 34.1708 178.789 34.6805C178.254 35.1903 177.618 35.5946 176.918 35.8705C176.218 36.1464 175.468 36.2883 174.71 36.2883Z" fill="white"/>
<g id="Group 15">
<circle id="Ellipse 3" cx="102.894" cy="31.2572" r="30.2223" fill="#0C2695" stroke="#FAF5F5" stroke-width="0.915828"/>
<path id="Vector_3" fill-rule="evenodd" clip-rule="evenodd" d="M104.418 29.3837C106.064 27.6458 107.925 26.7644 110.279 26.8707C114.108 27.0436 116.802 29.4915 116.996 33.3132C117.166 36.6792 117.045 40.0569 117.072 43.4288C117.078 44.2379 116.665 44.5403 115.82 44.5207C114.687 44.4945 113.55 44.4705 112.421 44.531C111.3 44.5912 110.873 44.178 110.893 43.1555C110.937 40.8663 110.909 38.5754 110.905 36.2853C110.903 35.6613 110.912 35.0342 110.858 34.4131C110.695 32.4906 109.466 31.3303 107.645 31.3434C105.773 31.3566 104.259 32.7381 104.226 34.5761C104.178 37.2818 104.207 39.9886 104.201 42.695C104.196 44.5071 104.195 44.5071 102.247 44.5189C98.0339 44.5437 98.0355 44.5437 98.0339 40.6739C98.0323 36.7185 98.0636 32.7621 98.0009 28.8075C97.9828 27.6624 98.3997 27.2038 99.643 27.3108C100.362 27.3729 101.092 27.3178 101.818 27.3205C103.984 27.3293 103.984 27.3304 104.418 29.3837ZM88.2224 35.8478C88.2224 33.4755 88.2698 31.1022 88.2016 28.7318C88.1702 27.6233 88.6311 27.2396 89.7946 27.3054C90.9234 27.3689 92.0604 27.3411 93.1923 27.319C94.0427 27.3029 94.4271 27.6208 94.4239 28.4272C94.4038 33.4213 94.401 38.4147 94.4115 43.4088C94.4131 44.2083 94.0367 44.5378 93.1807 44.5212C91.9578 44.4972 90.7327 44.4884 89.5107 44.5256C88.5727 44.5544 88.2203 44.1862 88.2304 43.3384C88.2602 40.8417 88.2409 38.3443 88.2409 35.8476C88.2352 35.8478 88.2288 35.8478 88.2224 35.8478ZM91.2586 24.8433C89.2694 24.8356 87.7961 23.5775 87.7826 21.8752C87.7688 20.2019 89.2896 18.8948 91.2506 18.8936C93.3844 18.8925 94.8296 20.1003 94.8211 21.8773C94.812 23.6869 93.4131 24.8511 91.2586 24.8433Z" fill="white"/>
</g>
</g>
</svg>
