<svg width="22" height="17" viewBox="0 0 22 17" fill="none" xmlns="http://www.w3.org/2000/svg">
<path id="Vector" d="M19.5495 0.31665H2.69701C2.10598 0.317346 1.53936 0.560492 1.12144 0.992746C0.703527 1.425 0.468446 2.01106 0.467773 2.62236V13.9941C0.468446 14.6054 0.703527 15.1915 1.12144 15.6237C1.53936 16.056 2.10598 16.2991 2.69701 16.2998H19.5495C20.1405 16.2991 20.7071 16.056 21.125 15.6237C21.5429 15.1915 21.778 14.6054 21.7787 13.9941V2.62236C21.778 2.01106 21.543 1.42499 21.1251 0.992735C20.7072 0.560477 20.1405 0.317334 19.5495 0.31665ZM15.5859 8.30511L20.887 4.00182V13.6276L15.5859 8.30511ZM2.69701 1.23893H19.5495C19.9041 1.23935 20.2441 1.38524 20.4948 1.64459C20.7456 1.90394 20.8866 2.25558 20.887 2.62236V2.82941L12.3085 9.79349C11.9948 10.0468 11.6083 10.1842 11.2104 10.1838C10.8125 10.1835 10.4261 10.0454 10.1129 9.79165L1.35947 2.82766V2.62236C1.35987 2.25558 1.50092 1.90394 1.75167 1.64459C2.00242 1.38524 2.34239 1.23935 2.69701 1.23893ZM6.81832 8.33407L1.35947 13.6462V3.99122L6.81832 8.33407ZM19.5495 15.3776H2.69701C2.46866 15.3774 2.24415 15.3168 2.04485 15.2016C1.84554 15.0863 1.67808 14.9202 1.5584 14.719L7.53426 8.90404L9.56652 10.5208C10.0365 10.9005 10.6158 11.1067 11.2122 11.1066C11.8086 11.1064 12.3878 10.8999 12.8576 10.5199L14.8781 8.88006L20.6904 14.7154C20.5709 14.9175 20.4033 15.0846 20.2035 15.2005C20.0038 15.3165 19.7786 15.3774 19.5495 15.3776Z" fill="white"/>
</svg>
