<svg width="17" height="19" viewBox="0 0 17 19" fill="none" xmlns="http://www.w3.org/2000/svg">
<g id="Group 10">
<path id="Vector" d="M14.7275 10.4066C14.551 10.4066 14.3666 10.3441 14.1901 10.2994C13.8328 10.2116 13.4816 10.0951 13.1394 9.95081C12.7674 9.79997 12.3584 9.80781 11.9912 9.97281C11.624 10.1378 11.3245 10.4483 11.1504 10.8446L10.9739 11.2468C10.1927 10.7625 9.47491 10.1611 8.84051 9.45925C8.21072 8.75231 7.67099 7.95238 7.23643 7.08187L7.57328 6.83162C7.92888 6.63761 8.20752 6.30389 8.35559 5.8947C8.50365 5.4855 8.51068 5.02975 8.37532 4.61512C8.24798 4.23298 8.14348 3.84185 8.06253 3.44431C8.02243 3.24769 7.99034 3.04212 7.96628 2.83656C7.86889 2.20702 7.57298 1.63692 7.13186 1.22892C6.69073 0.820919 6.13338 0.601836 5.56017 0.611123H3.15405C2.8084 0.607507 2.4661 0.686925 2.15047 0.843973C1.83483 1.00102 1.55327 1.23201 1.32494 1.52121C1.09662 1.81042 0.926896 2.15105 0.827325 2.51992C0.727755 2.88879 0.700676 3.27723 0.747933 3.65881C1.17521 7.40307 2.70974 10.882 5.10914 13.546C7.50854 16.2101 10.636 17.9074 13.9976 18.3699H14.3024C14.8938 18.3709 15.4649 18.1291 15.9065 17.6907C16.1602 17.4378 16.3629 17.1278 16.5012 16.7811C16.6394 16.4345 16.7101 16.0591 16.7085 15.6798V12.9985C16.6987 12.3777 16.4958 11.7799 16.1345 11.3072C15.7732 10.8345 15.2759 10.5162 14.7275 10.4066ZM15.1285 15.7691C15.1283 15.896 15.104 16.0214 15.0569 16.137C15.0099 16.2526 14.9413 16.3557 14.8558 16.4394C14.7662 16.5257 14.6614 16.5901 14.5481 16.6286C14.4349 16.667 14.3157 16.6787 14.1981 16.6629C11.1944 16.2337 8.40439 14.7024 6.26814 12.3106C4.13189 9.91872 2.771 6.80243 2.40013 3.45325C2.38737 3.32233 2.39856 3.18989 2.43302 3.06392C2.46748 2.93796 2.52451 2.82109 2.60064 2.72037C2.6758 2.62504 2.76832 2.54863 2.87204 2.49624C2.97575 2.44384 3.08829 2.41666 3.20217 2.4165H5.60829C5.7948 2.41187 5.97692 2.47985 6.12331 2.60872C6.2697 2.73759 6.3712 2.9193 6.41033 3.12256C6.44241 3.36685 6.48251 3.60817 6.53063 3.8465C6.62328 4.31763 6.74659 4.78063 6.89957 5.23181L5.77672 5.81275C5.68071 5.86184 5.59435 5.93157 5.5226 6.01795C5.45084 6.10433 5.39511 6.20566 5.35859 6.3161C5.32207 6.42655 5.3055 6.54395 5.30981 6.66156C5.31412 6.77917 5.33924 6.89467 5.38372 7.00144C6.53801 9.75665 8.5255 11.9714 10.998 13.2577C11.1933 13.3471 11.4123 13.3471 11.6075 13.2577C11.7076 13.2178 11.7995 13.1562 11.878 13.0764C11.9564 12.9966 12.0199 12.9003 12.0647 12.7929L12.562 11.5417C12.9766 11.7069 13.3998 11.8442 13.8292 11.9528C14.0431 12.0064 14.2596 12.0511 14.4788 12.0869C14.6612 12.1305 14.8243 12.2436 14.94 12.4067C15.0556 12.5698 15.1166 12.7728 15.1124 12.9806L15.1285 15.7691Z" fill="white"/>
</g>
</svg>
