<svg width="32" height="32" viewBox="0 0 32 32" fill="none" xmlns="http://www.w3.org/2000/svg">
<g id="fi_3857838">
<path id="Vector" d="M30 12.7695V24.0772C29.9984 25.362 29.4874 26.5937 28.5789 27.5022C27.6704 28.4107 26.4386 28.9218 25.1538 28.9234H6.84615C5.56136 28.9218 4.32963 28.4107 3.42114 27.5022C2.51265 26.5937 2.00157 25.362 2 24.0772V12.7695H30ZM19.9345 18.859H17.7112L17.0231 16.7445C16.9523 16.529 16.8152 16.3414 16.6315 16.2084C16.4478 16.0754 16.2268 16.0038 16 16.0038C15.7732 16.0038 15.5522 16.0754 15.3685 16.2084C15.1848 16.3414 15.0477 16.529 14.9769 16.7445L14.2898 18.859H12.0655C11.838 18.8589 11.6164 18.9309 11.4324 19.0646C11.2484 19.1982 11.1114 19.3867 11.0411 19.603C10.9708 19.8193 10.9707 20.0523 11.041 20.2686C11.1113 20.4849 11.2482 20.6735 11.4322 20.8071L13.2312 22.114L12.5442 24.2285C12.4738 24.4448 12.4738 24.6779 12.5441 24.8942C12.6144 25.1105 12.7514 25.299 12.9354 25.4327C13.1194 25.5664 13.341 25.6384 13.5685 25.6384C13.7959 25.6383 14.0176 25.5663 14.2015 25.4325L16 24.1257L17.7985 25.4325C17.9824 25.5663 18.2041 25.6383 18.4315 25.6384C18.659 25.6384 18.8806 25.5664 19.0646 25.4327C19.2486 25.299 19.3856 25.1105 19.4559 24.8942C19.5262 24.6779 19.5262 24.4448 19.4558 24.2285L18.7688 22.114L20.5678 20.8071C20.7518 20.6735 20.8887 20.4849 20.959 20.2686C21.0292 20.0523 21.0292 19.8193 20.9589 19.603C20.8886 19.3867 20.7516 19.1982 20.5676 19.0646C20.3836 18.9309 20.162 18.8589 19.9345 18.859Z" fill="#0C2695"/>
<g id="Vector_2">
<path d="M2 10.0771V11.6925H30V10.0771C29.9984 8.79235 29.4874 7.56062 28.5789 6.65213C27.6704 5.74364 26.4386 5.23256 25.1538 5.23099H23.5385V6.84638C23.5385 7.41761 23.3115 7.96545 22.9076 8.36938C22.5037 8.7733 21.9559 9.00023 21.3846 9.00023C20.8134 9.00023 20.2655 8.7733 19.8616 8.36938C19.4577 7.96545 19.2308 7.41761 19.2308 6.84638V5.23099H12.7692V6.84638C12.7692 7.41761 12.5423 7.96545 12.1384 8.36938C11.7345 8.7733 11.1866 9.00023 10.6154 9.00023C10.0441 9.00023 9.49631 8.7733 9.09239 8.36938C8.68846 7.96545 8.46154 7.41761 8.46154 6.84638V5.23099H6.84615C5.56136 5.23256 4.32963 5.74364 3.42114 6.65213C2.51265 7.56062 2.00157 8.79235 2 10.0771Z" fill="#4C6BF1"/>
<path d="M9.85389 7.60788C9.65192 7.40592 9.53846 7.132 9.53846 6.84638V4.15407C9.53846 3.86845 9.65192 3.59453 9.85389 3.39257C10.0558 3.19061 10.3298 3.07715 10.6154 3.07715C10.901 3.07715 11.1749 3.19061 11.3769 3.39257C11.5788 3.59453 11.6923 3.86845 11.6923 4.15407V6.84638C11.6923 7.132 11.5788 7.40592 11.3769 7.60788C11.1749 7.80984 10.901 7.9233 10.6154 7.9233C10.3298 7.9233 10.0558 7.80984 9.85389 7.60788Z" fill="#4C6BF1"/>
<path d="M20.3077 6.84638V4.15407C20.3077 3.86845 20.4212 3.59453 20.6231 3.39257C20.8251 3.19061 21.099 3.07715 21.3846 3.07715C21.6702 3.07715 21.9442 3.19061 22.1461 3.39257C22.3481 3.59453 22.4615 3.86845 22.4615 4.15407V6.84638C22.4615 7.132 22.3481 7.40592 22.1461 7.60788C21.9442 7.80984 21.6702 7.9233 21.3846 7.9233C21.099 7.9233 20.8251 7.80984 20.6231 7.60788C20.4212 7.40592 20.3077 7.132 20.3077 6.84638Z" fill="#4C6BF1"/>
</g>
</g>
</svg>
