<svg width="32" height="32" viewBox="0 0 32 32" fill="none" xmlns="http://www.w3.org/2000/svg">
<g id="fi_4803314">
<path id="Vector" d="M24.01 1H7.99001C7.00075 1 6.05201 1.39298 5.3525 2.09249C4.65299 2.792 4.26001 3.74074 4.26001 4.73V24.71C4.26001 25.6993 4.65299 26.648 5.3525 27.3475C6.05201 28.047 7.00075 28.44 7.99001 28.44H15.8C15.8896 27.7048 16.1881 27.0108 16.66 26.44L16.67 26.43V24.89C16.6672 23.7001 17.0302 22.5381 17.7099 21.5614C18.3897 20.5847 19.3532 19.8407 20.47 19.43C20.6951 19.0974 20.9983 18.825 21.3531 18.6367C21.7079 18.4484 22.1034 18.35 22.505 18.35C22.9066 18.35 23.3022 18.4484 23.6569 18.6367C24.0117 18.825 24.3149 19.0974 24.54 19.43C24.9611 19.5888 25.3635 19.7934 25.74 20.04C26.5919 20.6066 27.2812 21.3856 27.74 22.3V4.73C27.74 3.74074 27.347 2.792 26.6475 2.09249C25.948 1.39298 24.9993 1 24.01 1ZM10.06 18.16C9.78962 18.161 9.52502 18.0816 9.29978 17.932C9.07454 17.7824 8.89881 17.5693 8.79488 17.3197C8.69095 17.0701 8.66349 16.7952 8.716 16.5299C8.76851 16.2647 8.89862 16.021 9.08982 15.8298C9.28102 15.6386 9.5247 15.5085 9.78995 15.456C10.0552 15.4035 10.3301 15.4309 10.5797 15.5349C10.8293 15.6388 11.0424 15.8145 11.1921 16.0398C11.3417 16.265 11.421 16.5296 11.42 16.8C11.4196 17.1606 11.2762 17.5063 11.0213 17.7613C10.7663 18.0162 10.4206 18.1596 10.06 18.16ZM10.06 13.2C9.79004 13.201 9.52584 13.1219 9.30082 12.9727C9.0758 12.8236 8.90007 12.611 8.79584 12.362C8.69162 12.1129 8.66358 11.8386 8.71528 11.5736C8.76698 11.3086 8.89609 11.0649 9.08629 10.8734C9.27649 10.6818 9.51923 10.5509 9.78382 10.4972C10.0484 10.4436 10.323 10.4696 10.5728 10.572C10.8226 10.6744 11.0364 10.8486 11.1872 11.0725C11.338 11.2964 11.419 11.56 11.42 11.83C11.42 12.1916 11.2771 12.5386 11.0223 12.7952C10.7675 13.0519 10.4216 13.1974 10.06 13.2ZM10.06 8.23C9.78962 8.23099 9.52502 8.15165 9.29978 8.00204C9.07454 7.85243 8.89881 7.6393 8.79488 7.38968C8.69095 7.14005 8.66349 6.86518 8.716 6.59993C8.76851 6.33469 8.89862 6.09101 9.08982 5.89981C9.28102 5.70861 9.5247 5.5785 9.78995 5.52599C10.0552 5.47348 10.3301 5.50094 10.5797 5.60487C10.8293 5.7088 11.0424 5.88453 11.1921 6.10977C11.3417 6.33501 11.421 6.59961 11.42 6.87C11.4196 7.23058 11.2762 7.57629 11.0213 7.83126C10.7663 8.08623 10.4206 8.22963 10.06 8.23ZM23.43 17.8H14.88C14.6148 17.8 14.3604 17.6946 14.1729 17.5071C13.9854 17.3196 13.88 17.0652 13.88 16.8C13.88 16.5348 13.9854 16.2804 14.1729 16.0929C14.3604 15.9054 14.6148 15.8 14.88 15.8H23.43C23.6952 15.8 23.9496 15.9054 24.1371 16.0929C24.3247 16.2804 24.43 16.5348 24.43 16.8C24.43 17.0652 24.3247 17.3196 24.1371 17.5071C23.9496 17.6946 23.6952 17.8 23.43 17.8ZM23.43 12.83H14.88C14.6148 12.83 14.3604 12.7246 14.1729 12.5371C13.9854 12.3496 13.88 12.0952 13.88 11.83C13.88 11.5648 13.9854 11.3104 14.1729 11.1229C14.3604 10.9354 14.6148 10.83 14.88 10.83H23.43C23.6952 10.83 23.9496 10.9354 24.1371 11.1229C24.3247 11.3104 24.43 11.5648 24.43 11.83C24.43 12.0952 24.3247 12.3496 24.1371 12.5371C23.9496 12.7246 23.6952 12.83 23.43 12.83ZM23.43 7.87H14.88C14.6148 7.87 14.3604 7.76464 14.1729 7.57711C13.9854 7.38957 13.88 7.13522 13.88 6.87C13.88 6.60478 13.9854 6.35043 14.1729 6.16289C14.3604 5.97536 14.6148 5.87 14.88 5.87H23.43C23.6952 5.87 23.9496 5.97536 24.1371 6.16289C24.3247 6.35043 24.43 6.60478 24.43 6.87C24.43 7.13522 24.3247 7.38957 24.1371 7.57711C23.9496 7.76464 23.6952 7.87 23.43 7.87Z" fill="#0C2695"/>
<path id="Vector_2" d="M26.84 27.0496V24.8896C26.8388 23.9086 26.5049 22.9571 25.8927 22.1905C25.2806 21.424 24.4264 20.8878 23.47 20.6696C23.429 20.4414 23.3097 20.2347 23.1326 20.085C22.9555 19.9354 22.7318 19.8521 22.5 19.8496C22.2694 19.8524 22.047 19.936 21.8716 20.0858C21.6962 20.2356 21.5788 20.4422 21.54 20.6696C20.5834 20.8874 19.729 21.4235 19.1168 22.1901C18.5046 22.9567 18.1708 23.9085 18.17 24.8896V27.0596C17.7294 27.402 17.4275 27.8921 17.32 28.4396C17.288 28.5943 17.2713 28.7517 17.27 28.9096C17.2708 29.1746 17.3764 29.4285 17.5638 29.6159C17.7511 29.8032 18.005 29.9088 18.27 29.9096H21.5V29.9996C21.5 30.2648 21.6054 30.5192 21.7929 30.7067C21.9804 30.8943 22.2348 30.9996 22.5 30.9996C22.7652 30.9996 23.0196 30.8943 23.2071 30.7067C23.3947 30.5192 23.5 30.2648 23.5 29.9996V29.9096H26.74C27.005 29.9088 27.2589 29.8032 27.4463 29.6158C27.6336 29.4285 27.7392 29.1746 27.74 28.9096C27.7397 28.5518 27.6587 28.1987 27.5028 27.8766C27.347 27.5546 27.1204 27.2719 26.84 27.0496Z" fill="#4C6BF1"/>
</g>
</svg>
